<svg version="1.1" id="Layer_1" xmlns="http://www.w3.org/2000/svg" xmlns:xlink="http://www.w3.org/1999/xlink" x="0" y="0" viewBox="0 0 35 30" xml:space="preserve"><style>.st0{clip-path:url(#SVGID_2_);fill:#a05fa5}</style><defs><path id="SVGID_1_" d="M1 1.7h33.5V29H1z"/></defs><clipPath id="SVGID_2_"><use xlink:href="#SVGID_1_" overflow="visible"/></clipPath><path class="st0" d="M29.6 16.8c-5.2 6-10.4 9.2-11.9 10-1.5-.9-6.7-4-11.9-10-2.7-3.2-3.6-6.6-2.3-9.5 1-2.2 3-3.6 5.3-3.7h.3c2.9 0 5.8 2.1 7.8 5.9.2.3.5.5.9.5s.7-.2.9-.5c2.1-3.8 5-6 8-5.8 2.3.1 4.3 1.5 5.2 3.7 1.3 2.8.4 6.3-2.3 9.4m4.1-10.2c-1.3-2.9-3.9-4.8-7-4.9-3.4-.1-6.6 1.8-9 5.4-2.4-3.6-5.6-5.6-9-5.4-3.1.1-5.8 2-7 4.9-1.6 3.6-.6 7.8 2.6 11.5 6.4 7.4 12.7 10.6 12.9 10.8.3.1.6.1.9 0 .3-.1 6.6-3.3 12.9-10.8 3.3-3.7 4.3-7.9 2.7-11.5"/><path class="st0" d="M18.2 26.1c3.7-2 3.9-8.8.5-15.3C15.2 4.3 9.4.7 5.7 2.7S.9 12.1 5.3 18c4.3 5.7 9.2 10.1 12.9 8.1"/><path class="st0" d="M16.3 26.5c3.6 2.2 8.3-2 13.4-7.5 4.9-5.4 3.9-13.1.3-15.3s-9.6 1.2-13.4 7.5c-3.7 6.3-3.8 13.2-.3 15.3"/></svg>