<svg xmlns="http://www.w3.org/2000/svg" viewBox="0 0 1792 1792"><path d="M1152 896c0-70.7-25-131-75-181s-110.3-75-181-75-131 25-181 75-75 110.3-75 181 25 131 75 181 110.3 75 181 75 131-25 181-75 75-110.3 75-181zm138 0c0 109.3-38.3 202.3-115 279s-169.7 115-279 115-202.3-38.3-279-115-115-169.7-115-279 38.3-202.3 115-279 169.7-115 279-115 202.3 38.3 279 115 115 169.7 115 279zm108-410c0 25.3-9 47-27 65s-39.7 27-65 27-47-9-65-27-27-39.7-27-65 9-47 27-65 39.7-27 65-27 47 9 65 27 27 39.7 27 65zM896 266c-4.7 0-30.2-.2-76.5-.5s-81.5-.3-105.5 0-56.2 1.3-96.5 3-74.7 5-103 10c-28.3 5-52.2 11.2-71.5 18.5-33.3 13.3-62.7 32.7-88 58s-44.7 54.7-58 88c-7.3 19.3-13.5 43.2-18.5 71.5-5 28.3-8.3 62.7-10 103s-2.7 72.5-3 96.5-.3 59.2 0 105.5.5 71.8.5 76.5-.2 30.2-.5 76.5-.3 81.5 0 105.5 1.3 56.2 3 96.5 5 74.7 10 103 11.2 52.2 18.5 71.5c13.3 33.3 32.7 62.7 58 88s54.7 44.7 88 58c19.3 7.3 43.2 13.5 71.5 18.5 28.3 5 62.7 8.3 103 10s72.5 2.7 96.5 3 59.2.3 105.5 0 71.8-.5 76.5-.5 30.2.2 76.5.5 81.5.3 105.5 0 56.2-1.3 96.5-3 74.7-5 103-10 52.2-11.2 71.5-18.5c33.3-13.3 62.7-32.7 88-58s44.7-54.7 58-88c7.3-19.3 13.5-43.2 18.5-71.5s8.3-62.7 10-103 2.7-72.5 3-96.5.3-59.2 0-105.5-.5-71.8-.5-76.5.2-30.2.5-76.5.3-81.5 0-105.5-1.3-56.2-3-96.5-5-74.7-10-103c-5-28.3-11.2-52.2-18.5-71.5-13.3-33.3-32.7-62.7-58-88s-54.7-44.7-88-58c-19.3-7.3-43.2-13.5-71.5-18.5s-62.7-8.3-103-10-72.5-2.7-96.5-3-59.2-.3-105.5 0-71.8.5-76.5.5zm768 630c0 152.7-1.7 258.3-5 317-6.7 138.7-48 246-124 322s-183.3 117.3-322 124c-58.7 3.3-164.3 5-317 5s-258.3-1.7-317-5c-138.7-6.7-246-48-322-124s-117.3-183.3-124-322c-3.3-58.7-5-164.3-5-317s1.7-258.3 5-317c6.7-138.7 48-246 124-322s183.3-117.3 322-124c58.7-3.3 164.3-5 317-5s258.3 1.7 317 5c138.7 6.7 246 48 322 124s117.3 183.3 124 322c3.3 58.7 5 164.3 5 317z"/></svg>