<svg xmlns="http://www.w3.org/2000/svg" viewBox="0 0 1792 1792"><path d="M1490 1322c0 26.7-9.3 49.3-28 68l-136 136c-18.7 18.7-41.3 28-68 28s-49.3-9.3-68-28l-294-294-294 294c-18.7 18.7-41.3 28-68 28-26.7 0-49.3-9.3-68-28l-136-136c-18.7-18.7-28-41.3-28-68s9.3-49.3 28-68l294-294-294-294c-18.7-18.7-28-41.3-28-68s9.3-49.3 28-68l136-136c18.7-18.7 41.3-28 68-28 26.7 0 49.3 9.3 68 28l294 294 294-294c18.7-18.7 41.3-28 68-28s49.3 9.3 68 28l136 136c18.7 18.7 28 41.3 28 68s-9.3 49.3-28 68l-294 294 294 294c18.7 18.7 28 41.3 28 68z" fill="#fff"/></svg>