<svg xmlns="http://www.w3.org/2000/svg" viewBox="0 0 2080 788"><path d="M563.2 395.7s27.3-.8 27.3-36.8V254.1s0-36.3-35-36.3h-73.8v3.5h21.8v399H482v3.5h78.3s32.9-7.2 32.9-41.8V427s1.9-31.3-30-31.3zm-35.5-174.5h9.9c11.9.8 30.3 4.8 30.3 22.2v132.2s-.5 17.3-33.1 19.5h-7.1V221.2zm39.8 382.7s.2 15.3-24.6 16.3H528l-.4-221.6h27s12.8 1.6 12.8 28.8c.1 27.1.1 176.5.1 176.5zM200.9 217.7H90.5v107.2h3.7v-41.3c1.9-28.1 8.7-60.5 29.8-62.4h55.3L85.4 623.6h111.2V515.2h-3.7v47.7c-2.6 27.7-11 57.3-35.1 57.3H109c-.5 0 93.3-402.5 93.3-402.5h-1.4zm949.8 168.6l55.6-164.5h21.3v-3.4h-49.3v3.4h21.3l-59.7 175.1V369l.1-147.2h21.3v-3.4h-66.8v3.4h21.4v398.5h-21.4v3.5h66.1v-3.5h-21.3V431.7l53.8 188.6h-21.2v3.5h65.8v-3.5h-21.3zm313 234L1416.5 217h-8.4L1349 620.3h-21.3v3.5h50.5v-3.5h-21.3l17.1-114.9h52.8l14.3 114.9h-21.3v3.5h65.2v-3.5h-21.3zm-88.3-122.4l27.8-188.2 22.6 188.2h-50.4zm384.4-84.9c-.9.3-1.9.5-3 .6h3.7c-.2-.3-.4-.5-.7-.6zm-1.8-195.1l-1.8-.1h-59.9v3.5h20.4v399h-20.4v3.5h62.9v-3.5h-20.4V417h19s1.5-.1 3.8-.3c1.5-.1 3.4 0 5.5-.3 1.9-.3 3.9-.8 6-1.4 8.5-2.7 17.9-8.9 20.2-22.8l.3-2.4c.2-1.4.2-2.9.2-4.5V248.2s-1.5-29.3-35.8-30.3zm14.2 174.3v7.2c-.3 1.3-3.2 11-12.4 13.5-.9.3-1.9.5-3 .6H1739V221.3h18.6c1 0 14.6.7 14.6 33.4v137.5zm-12.4 20.8c-.9.3-1.9.5-3 .6h3.7c-.2-.3-.4-.5-.7-.6zM286.5 217.7v3.5H307v399h-20.5v3.5h105.8V516.1h-3.5V561c-2.4 27.3-10.5 57.2-34.2 59.4h-22.5V401.9h3.7c7.4.8 23.1 6.9 23.1 43.9v11.7h3.5V342.9H359v10.8c-.7 16.2-5.2 44.7-27.6 44.7V221.2h15c14.8 3.5 36.2 17.9 42.4 70.3v32h3.5V217.8h-2.1l-103.7-.1zm504.5-.4H683v3.5h21.4v399.7H683v3.5h110.5V516.1h-3.6V561c-2.6 28.3-11.6 59.6-38.5 59.6h-20.6V401.9h3.9c7.7.8 24.1 6.9 24.1 43.9v11.7h3.6V342.7h-3.6v11c-.8 16.2-5.5 44.7-28.8 44.7V220.8h14.1c15.5 2.8 39.2 16.2 45.8 70.6v31.9h3.6v-106H791zm1160.9 298.5v44.7c-2.5 27.9-11 58.7-36.3 59.8h-19.5l-.7-264.2V220.8h21.3v-3.5H1850v3.5h21.2v399.6h-21.3v3.5h105.6V516h-3.6z"/><circle cx="1590.7" cy="608.1" r="15.7"/><path d="M994.1 600.8V447.1s.8-32.6-22.6-32.6c0 0 23-5.6 23-29.3V248.1s-1.9-29.9-42-30.3h-68.9v3.5h23v399h-23v3.5H955v-3.5h-23.2V417.5h21.7s16.3.2 16.3 20.5v154.7s-1.1 31.1 25.1 31.1h10.7s-11.5-1.5-11.5-23zm-24.3-201.5s-4 14.8-19.8 14.8h-18V221.2h21.1s16.7-.4 16.7 33.5v144.6z"/><path d="M955.4 221.2h-69.5v-3.3l69.6.6z"/></svg>